<svg width="2944" height="659" viewBox="0 0 2944 659" fill="none" xmlns="http://www.w3.org/2000/svg">
  <g clip-path="url(#clip0_206_82)">
    <path
      d="M406.698 140L384.199 64.1554C368.73 18.6149 223.607 18.6148 208.138 64.1554L32.9831 559.092C21.4507 593.042 44.7878 629 78.3547 629H485.645C519.212 629 542.549 593.042 531.017 559.092L461.724 325.5"
      stroke="#FFFFFF" stroke-width="60" stroke-linecap="round" />
    <line x1="508" y1="473" x2="65" y2="473" stroke="#FFFFFF" stroke-width="60" />
    <line x1="277.295" y1="473.058" x2="509.476" y2="117.705" stroke="#FFFFFF" stroke-width="60"
      stroke-linecap="round" />
    <path
      d="M998.8 198.6C1005.47 198.6 1011.2 201 1016 205.8C1021.07 210.333 1023.6 216.067 1023.6 223V454.6C1023.6 461.533 1021.33 467.4 1016.8 472.2C1012.27 476.733 1006.27 479 998.8 479C991.333 479 985.2 476.733 980.4 472.2C975.867 467.667 973.6 461.8 973.6 454.6V293.4L907.6 394.2C904.933 397.4 901.867 400.067 898.4 402.2C894.933 404.067 891.333 404.867 887.6 404.6C884.133 404.867 880.667 404.067 877.2 402.2C873.733 400.067 870.667 397.4 868 394.2L802 289.8V454.6C802 461.8 799.867 467.667 795.6 472.2C791.333 476.733 785.733 479 778.8 479C772.133 479 766.667 476.733 762.4 472.2C758.133 467.4 756 461.533 756 454.6V223C756 216.333 758.4 210.6 763.2 205.8C768.267 201 774.267 198.6 781.2 198.6C785.2 198.6 789.2 199.667 793.2 201.8C797.2 203.667 800.267 206.2 802.4 209.4L889.6 343.4L979.2 209.4C981.333 206.2 984.133 203.667 987.6 201.8C991.333 199.667 995.067 198.6 998.8 198.6ZM1271.73 367C1271.47 373.4 1268.93 378.6 1264.13 382.6C1259.33 386.6 1253.73 388.6 1247.33 388.6H1115.33C1118.53 404.333 1125.87 416.733 1137.33 425.8C1148.8 434.6 1161.73 439 1176.13 439C1187.07 439 1195.6 438.067 1201.73 436.2C1207.87 434.067 1212.67 431.933 1216.13 429.8C1219.87 427.4 1222.4 425.8 1223.73 425C1228.53 422.6 1233.07 421.4 1237.33 421.4C1242.93 421.4 1247.73 423.4 1251.73 427.4C1255.73 431.4 1257.73 436.067 1257.73 441.4C1257.73 448.6 1254 455.133 1246.53 461C1239.07 467.133 1229.07 472.333 1216.53 476.6C1204 480.867 1191.33 483 1178.53 483C1156.13 483 1136.53 478.333 1119.73 469C1103.2 459.667 1090.4 446.867 1081.33 430.6C1072.27 414.067 1067.73 395.533 1067.73 375C1067.73 352.067 1072.53 331.933 1082.13 314.6C1091.73 297.267 1104.4 284.067 1120.13 275C1135.87 265.667 1152.67 261 1170.53 261C1188.13 261 1204.67 265.8 1220.13 275.4C1235.87 285 1248.4 297.933 1257.73 314.2C1267.07 330.467 1271.73 348.067 1271.73 367ZM1170.53 305C1139.6 305 1121.33 319.533 1115.73 348.6H1220.53V345.8C1219.47 334.6 1214 325 1204.13 317C1194.27 309 1183.07 305 1170.53 305ZM1414.97 433.8C1418.7 433.8 1422.03 435.667 1424.97 439.4C1428.17 442.867 1429.77 447.533 1429.77 453.4C1429.77 460.6 1425.77 466.733 1417.77 471.8C1410.03 476.6 1401.23 479 1391.37 479C1374.83 479 1360.83 475.533 1349.37 468.6C1338.17 461.4 1332.57 446.333 1332.57 423.4V313H1314.17C1307.77 313 1302.43 310.867 1298.17 306.6C1293.9 302.333 1291.77 297 1291.77 290.6C1291.77 284.467 1293.9 279.4 1298.17 275.4C1302.43 271.133 1307.77 269 1314.17 269H1332.57V243.4C1332.57 236.467 1334.83 230.733 1339.37 226.2C1344.17 221.4 1350.03 219 1356.97 219C1363.63 219 1369.23 221.4 1373.77 226.2C1378.3 230.733 1380.57 236.467 1380.57 243.4V269H1408.97C1415.37 269 1420.7 271.133 1424.97 275.4C1429.23 279.667 1431.37 285 1431.37 291.4C1431.37 297.533 1429.23 302.733 1424.97 307C1420.7 311 1415.37 313 1408.97 313H1380.57V421.4C1380.57 427 1382.03 431.133 1384.97 433.8C1387.9 436.2 1391.9 437.4 1396.97 437.4C1399.1 437.4 1402.03 436.867 1405.77 435.8C1408.97 434.467 1412.03 433.8 1414.97 433.8ZM1586.64 261C1594.64 261 1601.3 263.267 1606.64 267.8C1612.24 272.333 1615.04 277.667 1615.04 283.8C1615.04 292.067 1612.9 298.333 1608.64 302.6C1604.37 306.6 1599.3 308.6 1593.44 308.6C1589.44 308.6 1584.9 307.667 1579.84 305.8C1579.04 305.533 1577.17 305 1574.24 304.2C1571.57 303.4 1568.64 303 1565.44 303C1558.5 303 1551.84 305.133 1545.44 309.4C1539.04 313.667 1533.7 320.2 1529.44 329C1525.44 337.533 1523.44 347.8 1523.44 359.8V454.6C1523.44 461.533 1521.17 467.4 1516.64 472.2C1512.1 476.733 1506.37 479 1499.44 479C1492.5 479 1486.77 476.733 1482.24 472.2C1477.7 467.4 1475.44 461.533 1475.44 454.6V289.4C1475.44 282.467 1477.7 276.733 1482.24 272.2C1486.77 267.4 1492.5 265 1499.44 265C1506.37 265 1512.1 267.4 1516.64 272.2C1521.17 276.733 1523.44 282.467 1523.44 289.4V294.6C1529.57 283.667 1538.37 275.4 1549.84 269.8C1561.3 263.933 1573.57 261 1586.64 261ZM1845.49 372.2C1845.49 393.533 1840.69 412.733 1831.09 429.8C1821.49 446.6 1808.29 459.667 1791.49 469C1774.96 478.333 1756.69 483 1736.69 483C1716.42 483 1698.02 478.333 1681.49 469C1664.96 459.667 1651.89 446.6 1642.29 429.8C1632.69 412.733 1627.89 393.533 1627.89 372.2C1627.89 350.867 1632.69 331.8 1642.29 315C1651.89 297.933 1664.96 284.733 1681.49 275.4C1698.02 265.8 1716.42 261 1736.69 261C1756.69 261 1774.96 265.8 1791.49 275.4C1808.29 284.733 1821.49 297.933 1831.09 315C1840.69 331.8 1845.49 350.867 1845.49 372.2ZM1797.49 372.2C1797.49 359.133 1794.69 347.533 1789.09 337.4C1783.76 327 1776.42 319 1767.09 313.4C1758.02 307.8 1747.89 305 1736.69 305C1725.49 305 1715.22 307.8 1705.89 313.4C1696.82 319 1689.49 327 1683.89 337.4C1678.56 347.533 1675.89 359.133 1675.89 372.2C1675.89 385.267 1678.56 396.867 1683.89 407C1689.49 417.133 1696.82 425 1705.89 430.6C1715.22 436.2 1725.49 439 1736.69 439C1747.89 439 1758.02 436.2 1767.09 430.6C1776.42 425 1783.76 417.133 1789.09 407C1794.69 396.867 1797.49 385.267 1797.49 372.2ZM1999.99 261C2027.19 261 2045.99 269.133 2056.39 285.4C2066.79 301.4 2071.99 323.667 2071.99 352.2V454.6C2071.99 461.533 2069.73 467.4 2065.19 472.2C2060.66 476.733 2054.93 479 2047.99 479C2041.06 479 2035.33 476.733 2030.79 472.2C2026.26 467.4 2023.99 461.533 2023.99 454.6V352.2C2023.99 337.533 2020.93 326.067 2014.79 317.8C2008.66 309.267 1998.13 305 1983.19 305C1967.73 305 1955.59 309.533 1946.79 318.6C1937.99 327.4 1933.59 338.6 1933.59 352.2V454.6C1933.59 461.533 1931.33 467.4 1926.79 472.2C1922.26 476.733 1916.53 479 1909.59 479C1902.66 479 1896.93 476.733 1892.39 472.2C1887.86 467.4 1885.59 461.533 1885.59 454.6V289.4C1885.59 282.467 1887.86 276.733 1892.39 272.2C1896.93 267.4 1902.66 265 1909.59 265C1916.53 265 1922.26 267.4 1926.79 272.2C1931.33 276.733 1933.59 282.467 1933.59 289.4V296.2C1940.79 286.6 1950.13 278.333 1961.59 271.4C1973.33 264.467 1986.13 261 1999.99 261ZM2329.48 372.2C2329.48 393.533 2324.68 412.733 2315.08 429.8C2305.48 446.6 2292.28 459.667 2275.48 469C2258.94 478.333 2240.68 483 2220.68 483C2200.41 483 2182.01 478.333 2165.48 469C2148.94 459.667 2135.88 446.6 2126.28 429.8C2116.68 412.733 2111.88 393.533 2111.88 372.2C2111.88 350.867 2116.68 331.8 2126.28 315C2135.88 297.933 2148.94 284.733 2165.48 275.4C2182.01 265.8 2200.41 261 2220.68 261C2240.68 261 2258.94 265.8 2275.48 275.4C2292.28 284.733 2305.48 297.933 2315.08 315C2324.68 331.8 2329.48 350.867 2329.48 372.2ZM2281.48 372.2C2281.48 359.133 2278.68 347.533 2273.08 337.4C2267.74 327 2260.41 319 2251.08 313.4C2242.01 307.8 2231.88 305 2220.68 305C2209.48 305 2199.21 307.8 2189.88 313.4C2180.81 319 2173.48 327 2167.88 337.4C2162.54 347.533 2159.88 359.133 2159.88 372.2C2159.88 385.267 2162.54 396.867 2167.88 407C2173.48 417.133 2180.81 425 2189.88 430.6C2199.21 436.2 2209.48 439 2220.68 439C2231.88 439 2242.01 436.2 2251.08 430.6C2260.41 425 2267.74 417.133 2273.08 407C2278.68 396.867 2281.48 385.267 2281.48 372.2ZM2616.38 261C2642.78 261 2661.04 269.133 2671.18 285.4C2681.31 301.4 2686.38 323.667 2686.38 352.2V454.6C2686.38 461.533 2684.11 467.4 2679.58 472.2C2675.04 476.733 2669.31 479 2662.38 479C2655.44 479 2649.71 476.733 2645.18 472.2C2640.64 467.4 2638.38 461.533 2638.38 454.6V352.2C2638.38 337.533 2635.44 326.067 2629.58 317.8C2623.98 309.267 2613.98 305 2599.58 305C2584.64 305 2572.91 309.533 2564.38 318.6C2556.11 327.4 2551.98 338.6 2551.98 352.2V454.6C2551.98 461.533 2549.71 467.4 2545.18 472.2C2540.64 476.733 2534.91 479 2527.98 479C2521.04 479 2515.31 476.733 2510.78 472.2C2506.24 467.4 2503.98 461.533 2503.98 454.6V352.2C2503.98 337.533 2501.04 326.067 2495.18 317.8C2489.58 309.267 2479.58 305 2465.18 305C2450.24 305 2438.51 309.533 2429.98 318.6C2421.71 327.4 2417.58 338.6 2417.58 352.2V454.6C2417.58 461.533 2415.31 467.4 2410.78 472.2C2406.24 476.733 2400.51 479 2393.58 479C2386.64 479 2380.91 476.733 2376.38 472.2C2371.84 467.4 2369.58 461.533 2369.58 454.6V289.4C2369.58 282.467 2371.84 276.733 2376.38 272.2C2380.91 267.4 2386.64 265 2393.58 265C2400.51 265 2406.24 267.4 2410.78 272.2C2415.31 276.733 2417.58 282.467 2417.58 289.4V295.8C2424.78 286.2 2433.84 278.067 2444.78 271.4C2455.98 264.467 2468.38 261 2481.98 261C2515.58 261 2537.04 275.667 2546.38 305C2552.51 293.8 2561.71 283.667 2573.98 274.6C2586.51 265.533 2600.64 261 2616.38 261ZM2930.33 367C2930.06 373.4 2927.53 378.6 2922.73 382.6C2917.93 386.6 2912.33 388.6 2905.93 388.6H2773.93C2777.13 404.333 2784.46 416.733 2795.93 425.8C2807.39 434.6 2820.33 439 2834.73 439C2845.66 439 2854.19 438.067 2860.33 436.2C2866.46 434.067 2871.26 431.933 2874.73 429.8C2878.46 427.4 2880.99 425.8 2882.33 425C2887.13 422.6 2891.66 421.4 2895.93 421.4C2901.53 421.4 2906.33 423.4 2910.33 427.4C2914.33 431.4 2916.33 436.067 2916.33 441.4C2916.33 448.6 2912.59 455.133 2905.13 461C2897.66 467.133 2887.66 472.333 2875.13 476.6C2862.59 480.867 2849.93 483 2837.13 483C2814.73 483 2795.13 478.333 2778.33 469C2761.79 459.667 2748.99 446.867 2739.93 430.6C2730.86 414.067 2726.33 395.533 2726.33 375C2726.33 352.067 2731.13 331.933 2740.73 314.6C2750.33 297.267 2762.99 284.067 2778.73 275C2794.46 265.667 2811.26 261 2829.13 261C2846.73 261 2863.26 265.8 2878.73 275.4C2894.46 285 2906.99 297.933 2916.33 314.2C2925.66 330.467 2930.33 348.067 2930.33 367ZM2829.13 305C2798.19 305 2779.93 319.533 2774.33 348.6H2879.13V345.8C2878.06 334.6 2872.59 325 2862.73 317C2852.86 309 2841.66 305 2829.13 305Z"
      fill="#FFFFFF" />
  </g>
  <defs>
    <clipPath id="clip0_206_82">
      <rect width="2944" height="659" fill="transparent" />
    </clipPath>
  </defs>
</svg>
